#!OML:ASF X:\für Bonn\!DataBase\2005_08_11_Bastian_Final\c3d\Bastian.ASF
:FULLY-SPECIFIED
:DEGREES
96
root -22.0952 17.5911 -0.0656503 131.985 -78.842 -137.377
lowerback 4.35131 5.85348 7.65368
upperback 2.96977 8.00121 -3.42872
thorax 2.23194 4.20546 -7.95053
lowerneck -13.4536 -8.31034 2.22523
upperneck -2.77997 -11.7615 6.97149
head 1.69266 -5.80771 1.17511
rclavicle 1.13307e-013 -6.83819e-014
rhumerus 62.975 2.82768 -23.9954
rradius 22.2302
rwrist -17.501
rhand 4.54613 -10.6418
rfingers 7.12502
rthumb 29.937 -38.2405
lclavicle 1.13307e-013 -6.83819e-014
lhumerus -24.6009 -18.285 85.2844
lradius 12.006
lwrist 12.3789
lhand -9.98217 -3.98342
lfingers 7.12502
lthumb 16.0008 25.3758
rfemur 0.771586 3.92098 25.5074
rtibia 27.4979
rfoot -12.8039 -11.8248
rtoes -13.1578
lfemur 1.63808 4.60581 -12.9214
ltibia 25.2017
lfoot -13.437 -1.81052
ltoes -15.4281
97
root -22.0968 17.5912 -0.0619587 131.274 -78.9901 -136.671
lowerback 4.3877 5.87856 7.53801
upperback 2.99205 8.03128 -3.45241
thorax 2.22765 4.21828 -7.91331
lowerneck -13.4541 -8.38229 2.19659
upperneck -2.95467 -11.8495 7.06667
head 1.64521 -5.8576 1.20844
rclavicle 1.53064e-014 1.43125e-014
rhumerus 62.7513 2.74354 -23.9605
rradius 22.0266
rwrist -17.6573
rhand 5.13966 -10.8888
rfingers 7.12502
rthumb 30.5032 -38.3838
lclavicle 1.53064e-014 1.43125e-014
lhumerus -24.9369 -18.385 85.2666
lradius 12.4243
lwrist 12.7578
lhand -9.93253 -3.84981
lfingers 7.12502
lthumb 16.0486 25.5055
rfemur 0.794302 3.79203 25.484
rtibia 27.4948
rfoot -12.7827 -11.8988
rtoes -13.2659
lfemur 1.60074 4.58319 -12.9321
ltibia 25.2278
lfoot -13.4202 -1.93951
ltoes -15.622
98
root -22.0981 17.5915 -0.0578644 130.407 -79.1075 -135.797
lowerback 4.40677 5.88827 7.46407
upperback 3.01028 8.04161 -3.46402
thorax 2.22911 4.22222 -7.88531
lowerneck -13.4452 -8.43976 2.19028
upperneck -3.12231 -11.9197 7.12553
head 1.59402 -5.89956 1.22832
rclavicle -2.70347e-014 4.6118e-014
rhumerus 62.5248 2.6126 -24.1513
rradius 21.8894
rwrist -17.7585
rhand 5.56977 -11.1478
rfingers 7.12502
rthumb 30.9133 -38.5658
lclavicle -2.70347e-014 4.6118e-014
lhumerus -25.298 -18.5524 85.2758
lradius 12.8403
lwrist 13.2419
lhand -9.93116 -3.73918
lfingers 7.12502
lthumb 16.0499 25.6161
rfemur 0.81128 3.68701 25.5059
rtibia 27.4857
rfoot -12.7807 -11.9875
rtoes -13.3024
lfemur 1.54732 4.54654 -12.9019
ltibia 25.2592
lfoot -13.3879 -2.07487
ltoes -15.8189
99
root -22.0983 17.5909 -0.0542549 129.649 -79.2407 -135.063
lowerback 4.4612 5.90371 7.36916
upperback 3.04424 8.05991 -3.49167
thorax 2.22842 4.23009 -7.86559
lowerneck -13.4509 -8.49895 2.20681
upperneck -3.29317 -11.9963 7.18033
head 1.54266 -5.94507 1.24245
rclavicle -3.83654e-014 7.95139e-015
rhumerus 62.2504 2.36963 -24.5995
rradius 21.8279
rwrist -17.7397
rhand 5.78641 -11.432
rfingers 7.12502
rthumb 31.1198 -38.8106
lclavicle -3.83654e-014 7.95139e-015
lhumerus -25.618 -18.7029 85.2637
lradius 13.2395
lwrist 13.6901
lhand -9.9146 -3.64474
lfingers 7.12502
lthumb 16.0659 25.7092
rfemur 0.853347 3.63698 25.5074
rtibia 27.4814
rfoot -12.7737 -12.1245
rtoes -13.339
lfemur 1.52401 4.54383 -12.9023
ltibia 25.288
lfoot -13.3687 -2.20201
ltoes -16.1352
100
root -22.0983 17.5908 -0.0500283 128.934 -79.3705 -134.344
lowerback 4.49418 5.92319 7.2752
upperback 3.06836 8.08286 -3.51368
thorax 2.2294 4.24008 -7.83842
lowerneck -13.4538 -8.55707 2.19095
upperneck -3.45594 -12.0665 7.23577
head 1.49576 -5.98663 1.26221
rclavicle -5.98342e-014 4.13472e-014
rhumerus 61.9826 2.16901 -24.9433
rradius 21.7893
rwrist -17.8472
rhand 5.72418 -11.6915
rfingers 7.12502
rthumb 31.0605 -39.0814
lclavicle -5.98342e-014 4.13472e-014
lhumerus -25.9458 -18.8382 85.2705
lradius 13.628
lwrist 14.1296
lhand -9.91682 -3.52516
lfingers 7.12502
lthumb 16.0637 25.829
rfemur 0.864835 3.53715 25.4877
rtibia 27.4734
rfoot -12.7704 -12.2147
rtoes -13.3441
lfemur 1.47008 4.51635 -12.9135
ltibia 25.319
lfoot -13.3355 -2.32576
ltoes -16.2187
101
root -22.0979 17.5903 -0.0462243 128.111 -79.4867 -133.536
lowerback 4.5575 5.93132 7.21649
upperback 3.08812 8.09361 -3.55193
thorax 2.21435 4.2443 -7.85233
lowerneck -13.4704 -8.61161 2.21812
upperneck -3.58315 -12.1408 7.28718
head 1.45993 -6.02914 1.2722
rclavicle 8.05078e-014 -2.8625e-014
rhumerus 61.7239 1.98406 -25.2543
rradius 21.7574
rwrist -18.0805
rhand 5.53536 -11.9151
rfingers 7.12502
rthumb 30.8805 -39.3393
lclavicle 8.05078e-014 -2.8625e-014
lhumerus -26.2772 -19.0222 85.2512
lradius 14.0035
lwrist 14.5787
lhand -9.92453 -3.43427
lfingers 7.12502
lthumb 16.0563 25.9205
rfemur 0.891934 3.4253 25.4929
rtibia 27.4726
rfoot -12.743 -12.2968
rtoes -13.422
lfemur 1.43899 4.49018 -12.8998
ltibia 25.3413
lfoot -13.3069 -2.46194
ltoes -16.4145
102
root -22.0976 17.5905 -0.0422076 127.38 -79.603 -132.817
lowerback 4.61291 5.94554 7.1398
upperback 3.09693 8.11172 -3.58341
thorax 2.18981 4.25098 -7.84869
lowerneck -13.4013 -8.66041 2.23836
upperneck -3.75771 -12.1992 7.33288
head 1.39353 -6.06731 1.28773
rclavicle 8.98507e-014 -4.13472e-014
rhumerus 61.4641 1.8682 -25.3935
rradius 21.7539
rwrist -18.5184
rhand 5.21493 -12.1489
rfingers 7.12502
rthumb 30.575 -39.6305
lclavicle 8.98507e-014 -4.13472e-014
lhumerus -26.6452 -19.1476 85.2355
lradius 14.4068
lwrist 14.9488
lhand -9.90603 -3.31464
lfingers 7.12502
lthumb 16.0741 26.0387
rfemur 0.919785 3.37379 25.4895
rtibia 27.468
rfoot -12.7378 -12.4109
rtoes -13.3871
lfemur 1.40929 4.50279 -12.9011
ltibia 25.3649
lfoot -13.291 -2.58361
ltoes -16.7527
103
root -22.0973 17.591 -0.0380264 126.59 -79.7269 -132.042
lowerback 4.66843 5.95303 7.07389
upperback 3.10817 8.12108 -3.61897
thorax 2.16834 4.25382 -7.85547
lowerneck -13.305 -8.7151 2.22153
upperneck -3.94951 -12.2591 7.4166
head 1.32255 -6.10636 1.32252
rclavicle -1.24439e-013 4.92986e-014
rhumerus 61.2082 1.73392 -25.5754
rradius 21.771
rwrist -18.9446
rhand 4.80238 -12.404
rfingers 7.12502
rthumb 30.1815 -39.9582
lclavicle -1.24439e-013 4.92986e-014
lhumerus -26.9832 -19.306 85.2308
lradius 14.732
lwrist 15.3251
lhand -9.90286 -3.25151
lfingers 7.12502
lthumb 16.0772 26.1015
rfemur 0.944781 3.2778 25.4741
rtibia 27.4636
rfoot -12.7238 -12.5062
rtoes -13.4403
lfemur 1.38039 4.4714 -12.9098
ltibia 25.3843
lfoot -13.2681 -2.70759
ltoes -16.8893
104
root -22.0964 17.5901 -0.0334469 125.801 -79.8494 -131.268
lowerback 4.73115 5.95698 7.01788
upperback 3.11388 8.12659 -3.65669
thorax 2.13813 4.25452 -7.8714
lowerneck -13.2243 -8.7646 2.21106
upperneck -4.1016 -12.3151 7.49359
head 1.26653 -6.14163 1.35271
rclavicle -1.99977e-013 5.725e-014
rhumerus 60.9581 1.60612 -25.7167
rradius 21.81
rwrist -19.38
rhand 4.3411 -12.6345
rfingers 7.12502
rthumb 29.7413 -40.2683
lclavicle -1.99977e-013 5.725e-014
lhumerus -27.3028 -19.4315 85.2128
lradius 15.025
lwrist 15.6447
lhand -9.89708 -3.15417
lfingers 7.12502
lthumb 16.0828 26.1984
rfemur 0.971744 3.20623 25.4597
rtibia 27.4602
rfoot -12.7033 -12.6076
rtoes -13.4358
lfemur 1.35217 4.39143 -12.9358
ltibia 25.3998
lfoot -13.2469 -2.78167
ltoes -17.0828
105
root -22.0964 17.5905 -0.0284735 124.971 -79.9482 -130.447
lowerback 4.78199 5.95875 7.01666
upperback 3.11592 8.13093 -3.70913
thorax 2.12103 4.25681 -7.93219
lowerneck -13.1469 -8.80814 2.21735
upperneck -4.23595 -12.3668 7.57328
head 1.21604 -6.17417 1.38078
rclavicle 7.95139e-016 6.36111e-015
rhumerus 60.7054 1.47446 -25.8904
rradius 21.8417
rwrist -19.7894
rhand 3.82957 -12.8036
rfingers 7.12502
rthumb 29.253 -40.5235
lclavicle 7.95139e-016 6.36111e-015
lhumerus -27.5931 -19.5131 85.1467
lradius 15.2767
lwrist 15.8746
lhand -9.88031 -3.07807
lfingers 7.12502
lthumb 16.0989 26.2732
rfemur 0.992564 3.06887 25.4514
rtibia 27.4552
rfoot -12.6936 -12.6528
rtoes -13.506
lfemur 1.32428 4.3291 -12.9334
ltibia 25.4161
lfoot -13.229 -2.86693
ltoes -17.1121
106
root -22.0963 17.5899 -0.0237338 124.195 -80.0554 -129.681
lowerback 4.84264 5.95594 6.99901
upperback 3.10351 8.12938 -3.76462
thorax 2.08013 4.25441 -7.98945
lowerneck -13.0466 -8.84885 2.21122
upperneck -4.35241 -12.4128 7.6661
head 1.1695 -6.20297 1.41577
rclavicle -2.8625e-014 4.92986e-014
rhumerus 60.4619 1.34596 -26.1002
rradius 21.8722
rwrist -20.1171
rhand 3.32185 -12.9308
rfingers 7.12502
rthumb 28.7681 -40.7342
lclavicle -2.8625e-014 4.92986e-014
lhumerus -27.9182 -19.6629 85.1156
lradius 15.5039
lwrist 16.1432
lhand -9.86929 -2.96617
lfingers 7.12502
lthumb 16.1095 26.3843
rfemur 1.01704 2.99721 25.4387
rtibia 27.454
rfoot -12.694 -12.7387
rtoes -13.5453
lfemur 1.30262 4.30921 -12.9423
ltibia 25.4297
lfoot -13.2116 -2.98887
ltoes -17.2353
